<?xml version="1.0" standalone="no"?>
<!DOCTYPE svg PUBLIC "-//W3C//DTD SVG 20010904//EN"
 "http://www.w3.org/TR/2001/REC-SVG-20010904/DTD/svg10.dtd">
<svg version="1.0" xmlns="http://www.w3.org/2000/svg"
 width="512.000000pt" height="512.000000pt" viewBox="0 0 512.000000 512.000000"
 preserveAspectRatio="xMidYMid meet">
<metadata>
Created by potrace 1.14, written by Peter Selinger 2001-2017
</metadata>
<g transform="translate(0.000000,512.000000) scale(0.100000,-0.100000)"
fill="#000000" stroke="none">
<path d="M4515 4616 c-26 -26 -27 -29 -23 -141 3 -100 5 -116 23 -129 30 -23
72 -19 100 8 22 22 23 30 22 134 -2 123 -8 137 -64 148 -26 5 -37 1 -58 -20z"/>
<path d="M3848 4395 c-56 -19 -66 -27 -283 -244 -116 -116 -216 -211 -221
-211 -5 0 -50 41 -99 91 -92 94 -131 119 -186 119 -52 0 -90 -26 -197 -133
l-102 -102 -113 55 c-192 94 -413 159 -610 177 -133 13 -438 6 -489 -12 -7 -2
-29 -6 -48 -9 -19 -3 -79 -17 -133 -31 -371 -96 -725 -327 -959 -625 -33 -41
-65 -82 -71 -90 -106 -133 -243 -441 -289 -645 -49 -226 -58 -497 -23 -715 15
-93 70 -301 94 -355 5 -11 24 -54 42 -95 227 -513 712 -915 1259 -1040 158
-36 239 -45 425 -44 188 0 310 16 505 68 129 33 363 140 482 219 161 107 349
279 455 417 262 340 394 734 387 1155 -1 77 -5 158 -8 180 -3 22 -9 60 -12 85
-3 25 -10 63 -16 85 -5 22 -12 48 -14 58 -2 10 -6 27 -9 37 -3 10 -8 27 -10
37 -12 58 -64 193 -115 295 l-57 118 96 97 c115 116 136 146 140 194 4 58 -20
98 -117 194 -50 50 -92 95 -92 100 0 6 94 104 208 218 233 233 249 243 309
193 63 -53 53 -97 -46 -201 -77 -82 -97 -131 -88 -219 6 -63 23 -99 69 -145
46 -47 102 -71 168 -71 95 0 130 24 351 245 110 110 202 209 205 220 13 52
-40 104 -90 89 -11 -3 -111 -96 -222 -205 -189 -188 -202 -199 -238 -199 -29
0 -45 7 -68 30 -27 27 -30 36 -25 71 4 33 18 54 71 109 97 100 121 171 91 273
-37 129 -182 205 -307 162z"/>
<path d="M4853 4150 c-30 -12 -46 -47 -39 -83 10 -49 29 -56 152 -57 95 0 113
3 127 18 28 30 31 74 9 102 -18 23 -27 25 -123 26 -57 1 -114 -2 -126 -6z"/>
<path d="M4533 3750 c-46 -19 -57 -83 -20 -118 27 -26 79 -29 101 -6 37 37 26
107 -19 124 -31 12 -33 12 -62 0z"/>
</g>
</svg>
